<?xml version="1.0" encoding="UTF-8"?>
<svg id="Layer_1" data-name="Layer 1" xmlns="http://www.w3.org/2000/svg" xmlns:xlink="http://www.w3.org/1999/xlink" viewBox="0 0 792.5 792.5">
  <defs>
    <style>
      .cls-1 {
        fill: #fff;
      }

      .cls-2 {
        fill: none;
      }

      .cls-3 {
        fill: #074D82;
      }

      .cls-4 {
        clip-path: url(#clippath);
      }
    </style>
    <clipPath id="clippath">
      <rect class="cls-2" width="792.5" height="792.5"/>
    </clipPath>
  </defs>
  <g class="cls-4">
    <path class="cls-3" d="M396.25,792.5c218.84,0,396.25-177.41,396.25-396.25S615.09,0,396.25,0,0,177.41,0,396.25s177.41,396.25,396.25,396.25"/>
    <path class="cls-1" d="M470.84,522.15c16.64-1.03,33.43-4.05,49.67-7.93,9.33-2.34,18.48-7.26,26.27-13.03,18.59-13.29,23.27-33.68,14.07-54.54-10.9-24.24-27.25-44.69-44.91-64.02-1.83-1.8-6.71-1.8-9.73-.93-34.85,10.69-69.32,22.92-104.46,32.59-50.79,13.87-102.77,19.33-155.52,16.95-40.11-1.8-73.96-13.16-102.07-32.94.37,46.2,13.3,89.35,35.33,126.39,68.59-.32,137.2-.61,205.79-.9,28.55-.19,57.1,0,85.57-1.64"/>
    <path class="cls-1" d="M198.73,352.28c42.41,20.71,87.31,24.11,133.33,18.62,40.21-4.53,78.59-16.28,116.82-28.8,5.28-1.83,10.44-3.63,15.62-5.3.16-.71.36-1.41.52-2.25-15.53-10.08-30.8-21.06-46.78-30.31-30.56-17.5-63.12-30.05-98.57-32.78-57.99-4.49-109.8,15.41-161.18,40.84-.7,2.31-1.67,4.46-2.44,6.9,12.27,14.45,26.37,25.14,42.67,33.07"/>
    <path class="cls-1" d="M648.35,396.27c0-23.28-3.4-45.56-9.22-66.87-15.99,7.16-31.97,14.13-47.55,21.16,9.41,15.99,20.06,31.46,28.42,48.16,14.08,28,19.17,57.5,11.13,88.45,10.95-28.32,17.22-58.94,17.22-90.89"/>
    <path class="cls-1" d="M396.1,144.15c-77.99,0-147.59,35.31-193.87,90.79,39.97-13.03,81.46-20.06,125.19-18.33,56.04,2.25,107.97,19.58,156.18,47.32,19.14,11.11,37.06,24.43,55.1,37.24,5.24,3.79,9.1,5.01,15.51,2.38,21.23-9.09,42.46-18.14,63.85-27.1-42.72-78.85-126.06-132.3-221.96-132.3"/>
    <path class="cls-1" d="M579.78,554.25c-39.2,26.2-82.47,40.64-130.12,40.77-68.94.32-137.91.61-206.85.9,42.46,32.81,95.55,52.43,153.29,52.43,93.72,0,175.32-51.27,218.74-127.07-9.31,12.87-21.23,23.72-35.07,32.97"/>
  </g>
</svg>