<svg xmlns="http://www.w3.org/2000/svg" viewBox="0 0 169.8 35.59">
  <defs>
    <clipPath id="clippath">
      <rect width="169.8" height="35.59" fill="none"/>
    </clipPath>
  </defs>
  <g clip-path="url(#clippath)" fill="#054e82">
    <path d="M156.48,26.68c1.25-.07,2.51-.28,3.73-.56.7-.17,1.39-.51,1.97-.92,1.39-.94,1.74-2.38,1.05-3.85-.82-1.71-2.05-3.15-3.37-4.52-.14-.13-.5-.13-.73-.07-2.61.75-5.2,1.62-7.84,2.3-3.81.98-7.71,1.37-11.67,1.2-3.01-.13-5.55-.93-7.65-2.32.03,3.26,1,6.31,2.65,8.92,5.14-.02,10.29-.04,15.44-.06,2.14-.01,4.28,0,6.42-.12"/>
    <path d="M136.07,14.69c3.18,1.46,6.55,1.7,10,1.32,3.01-.32,5.89-1.15,8.76-2.03.4-.13.78-.26,1.17-.37.01-.05.03-.1.04-.16-1.17-.71-2.31-1.49-3.51-2.14-2.29-1.23-4.73-2.12-7.39-2.31-4.35-.32-8.24,1.09-12.09,2.88-.05.16-.12.32-.18.49.92,1.02,1.98,1.78,3.2,2.33"/>
    <path d="M169.8,17.8c0-1.64-.25-3.22-.69-4.72-1.2.5-2.4,1-3.57,1.49.71,1.13,1.51,2.22,2.13,3.4,1.06,1.98,1.44,4.06.84,6.24.82-2,1.29-4.16,1.29-6.42"/>
    <path d="M150.88,0c-5.85,0-11.07,2.49-14.54,6.41,3-.92,6.11-1.42,9.39-1.3,4.2.16,8.1,1.38,11.71,3.34,1.44.78,2.78,1.73,4.13,2.63.39.27.68.36,1.16.17,1.59-.64,3.18-1.28,4.79-1.91-3.2-5.57-9.45-9.34-16.65-9.34"/>
    <path d="M164.65,28.95c-2.94,1.85-6.19,2.87-9.76,2.88-5.17.02-10.34.04-15.52.06,3.19,2.31,7.17,3.7,11.5,3.7,7.03,0,13.15-3.62,16.41-8.97-.7.91-1.59,1.67-2.63,2.33"/>
    <path d="M40.07,13.54c.47-.92,1.19-1.58,2.14-2.02,1.96-.89,3.62-.5,5,1.19.23-.17.47-.32.69-.5.94-.69,2.01-1.07,3.19-1.13,2.03-.09,3.29.85,3.48,2.88.13,1.33.1,2.7.11,4.06.01,1.91,0,3.81,0,5.71,0,.25-.03.48-.05.74h-3.65v-.89c-.02-2.64-.02-5.27-.04-7.92,0-.32-.05-.66-.15-.97-.19-.55-.58-.77-1.19-.67-.72.11-1.34.44-1.87.91-.1.09-.13.27-.13.41.01,2.9.01,5.79.05,8.68,0,.36-.11.48-.47.47-1.06-.01-2.12,0-3.23,0,0-.2-.05-.36-.05-.54,0-2.56,0-5.13,0-7.69,0-.51-.05-1.02-.17-1.5-.16-.63-.55-.83-1.23-.72-.7.11-1.28.46-1.8.87-.1.07-.12.27-.12.4-.02,2.84-.02,5.68-.02,8.51v.58c-.24.03-.46.09-.67.09h-2.54c-.37.01-.51-.15-.51-.51,0-2.87,0-5.74-.01-8.61,0-.96-.1-1.92-.44-2.84-.18-.52.07-.78.63-.67,1.06.19,1.7.55,3.05,1.68"/>
    <path d="M87.99,17.87h0c0-1.09,0-2.18-.01-3.26,0-.12-.07-.31-.18-.37-1.68-.96-3.49-.23-3.74,1.59-.15,1.19-.15,2.42-.1,3.62.01.6.24,1.22.44,1.8.18.48.62.73,1.12.84.84.18,1.61,0,2.25-.55.13-.1.21-.31.22-.48.02-1.07.01-2.12.01-3.19M92.22,25.01c-1.43-.2-2.8-.28-3.71-1.46-.24.17-.47.34-.71.52-1.87,1.23-4.23,1.18-5.77-.13-.92-.79-1.37-1.84-1.61-2.95-.44-2.09-.36-4.18.25-6.23.48-1.6,1.42-2.89,3.21-3.44,1.31-.41,2.59-.34,3.83.25.08.04.16.08.29.12v-3.29c0-.5-.02-.98,0-1.48,0-.62.1-.73.73-.85.84-.16,1.69-.29,2.53-.45.28-.07.4.05.42.29.02.33.05.66.05.98.01,4.63-.03,9.26.01,13.88.02,1.21.27,2.43.42,3.66.02.16.04.34.07.57"/>
    <path d="M8.45,18.32c-.04-1.37-.04-2.42-.48-3.41-.27-.59-.72-.94-1.39-1.01-.78-.09-1.43.18-2.04.63-.24.19-.35.38-.35.68.02,1.99.02,3.99,0,5.98,0,.4.13.62.51.72.14.04.27.09.42.14,1.44.34,2.81.03,3.1-1.75.14-.76.18-1.53.23-1.98M4.2,24.35c-.26,1.42-.69,2.74-1.49,3.91-.34.51-.76.98-1.17,1.45-.15.21-.37.28-.64.2-.27-.1-.38-.28-.38-.57,0-2.84.01-5.69,0-8.53-.01-2.09-.01-4.17-.08-6.25-.02-.66-.23-1.29-.4-1.92-.11-.44-.02-.71.44-.86.68-.21,1.37-.43,2.06-.62.55-.16.66-.09.93.38.13.24.22.49.35.75.73-.55,1.52-.95,2.44-1.13,2.16-.43,4.12.49,5.05,2.36.42.84.66,1.73.74,2.65.14,1.77.18,3.54-.38,5.27-.15.48-.36.94-.61,1.39-.79,1.37-2.07,2-3.68,2.11-1.09.07-2.14-.11-3.18-.59"/>
    <path d="M67.03,24.76c-1.42-.05-2.75-.09-3.68-1.21-.97.72-2.02,1.23-3.22,1.34-.65.05-1.33.05-1.96-.08-1.53-.31-2.3-1.32-2.54-2.72-.07-.43-.08-.88-.08-1.33-.01-2.83,0-5.65-.02-8.49,0-.31.08-.5.42-.57,1.07-.22,2.14-.46,3.27-.7.03.4.05.73.05,1.04,0,2.67,0,5.32,0,7.97,0,.31.02.63.09.95.17.76.69,1.16,1.5,1.03.67-.11,1.3-.37,1.94-.61.09-.03.17-.26.17-.4,0-2.89.02-5.79,0-8.69,0-.37.13-.55.5-.63,1.05-.2,2.11-.42,3.21-.66.15,4.63-.19,9.18.36,13.76"/>
    <path d="M79.19,24.48c-1.13,0-2.23,0-3.33-.02-.11,0-.29-.21-.33-.35-.07-.22-.03-.45-.03-.67,0-2.58,0-5.16-.02-7.74,0-.2-.02-.4-.07-.6-.2-.86-.79-1.22-1.72-1.07-.69.13-1.27.47-1.79.9-.11.09-.12.29-.12.44-.02,2.87-.01,5.74-.01,8.61v.44c-1.18,0-2.31,0-3.45,0-.28,0-.26-.19-.26-.37,0-.95,0-1.9,0-2.84,0-2.03.02-4.07-.02-6.1-.04-1.04-.16-2.06-.3-3.08-.11-.76-.04-.85.76-.82,1.39.06,2.22.49,2.94,1.52.25-.18.47-.36.72-.54,1.11-.75,2.35-1.18,3.73-1.07,1.95.14,3.21,1.35,3.3,3.2.05,1.19.05,2.4.05,3.59,0,2.09-.02,4.2-.03,6.29,0,.08,0,.15-.02.3"/>
    <path d="M16.72,16.34h4.12c-.02-.36-.02-.69-.07-1.02-.12-.69-.39-1.3-1.17-1.53-.96-.32-2,.07-2.4.95-.23.48-.32,1.03-.48,1.6M16.67,19.03c.16.6.25,1.17.46,1.69.34.79,1.03,1.19,1.92,1.25.93.06,1.86.08,2.78.15.78.07,1.52.29,2.17.73.49.33.49.6,0,.94-.8.56-1.76.76-2.72.95-1.23.24-2.47.29-3.71.03-2.02-.44-3.38-1.59-4-3.42-.78-2.3-.78-4.62.22-6.86,1.29-2.92,4.51-4.16,7.69-3.01,1.23.44,2.03,1.34,2.53,2.46.66,1.47.82,3,.74,4.57-.02.27-.14.41-.4.43-.34.04-.68.06-1.01.06-2.06,0-4.11,0-6.17,0-.11,0-.23.01-.5.03"/>
    <path d="M107.09,18.72c-1.05-.02-2.04,0-2.91.53-.73.46-.8,1.14-.69,1.86.1.58.65,1.03,1.32,1.18.69.13,1.85-.31,2.22-.85.05-.05.05-.14.05-.21,0-.82,0-1.64,0-2.52M111.38,23.89c-.92.34-1.85.66-2.78,1-.21.09-.35.03-.44-.18-.16-.38-.34-.76-.52-1.17-.19.14-.35.28-.53.4-1.31,1-2.79,1.25-4.4.8-1.64-.46-2.54-1.57-2.75-3.13-.29-2.2.42-3.7,2.56-4.6.5-.21,1.04-.35,1.59-.42.96-.14,1.94-.2,3.01-.29-.04-.5-.07-1.04-.17-1.57-.07-.39-.38-.62-.79-.74-.76-.2-1.51-.13-2.26.07-.63.16-1.26.36-1.87.55-.21.06-.4.05-.47-.15-.25-.7-.48-1.42-.68-2.12-.04-.11.1-.34.22-.38,2.08-.82,4.24-1.12,6.45-.7,1.9.36,2.93,1.55,3.01,3.35.07,1.38.02,2.76.05,4.13.02,1.06.02,2.11.15,3.15.08.65.39,1.27.62,2"/>
    <path d="M31.23,14.45h-.5c-1.57,0-3.12,0-4.68,0-.32,0-.43-.09-.42-.39.02-.68.02-1.37-.01-2.05,0-.35.12-.44.46-.45,1.94,0,3.9-.05,5.85-.05,1.02,0,2.04.03,3.06.05.3,0,.43.12.43.41-.02.61.02,1.21,0,1.83,0,.14-.11.3-.2.43-1.84,2.3-3.66,4.58-5.5,6.89-.11.14-.22.28-.34.44.62.14,1.25.21,1.81.41,1.1.39,2.19.83,3.27,1.28.3.12.56.35.77.59.33.36.17.73-.33.82-.12.02-.25.03-.36,0-2.13-.39-4.28-.26-6.43-.22-.99.01-1.98,0-3.04,0,0-.75-.01-1.49.01-2.23,0-.12.14-.24.22-.35,1.89-2.34,3.77-4.67,5.65-7.02.08-.1.15-.22.28-.39"/>
    <path d="M118.57,23.87c-.11.11-.16.22-.25.28-1.17.64-2.4,1.01-3.77.66-1.26-.33-1.88-1.19-2.12-2.33-.11-.51-.17-1.05-.17-1.58-.01-4.75,0-9.5-.01-14.27,0-.32.09-.44.45-.5.9-.13,1.78-.33,2.68-.48.18-.04.38,0,.61,0v.43c0,4.58.03,9.18-.03,13.76-.01,1.63.75,2.79,2.09,3.7.16.1.32.2.53.32"/>
    <path d="M95.03,24.47v-10.28c-1.35-.43-2.17-1.3-2.7-2.53.37-.06.69-.16,1.01-.16,1.65,0,3.3.03,4.95.03.32,0,.41.13.41.41-.02,4.08-.02,8.16-.02,12.25,0,.07-.03.16-.05.28h-3.6Z"/>
    <path d="M96.83,10.07c-1.3,0-2.39-1.02-2.39-2.24.01-1.29.99-2.23,2.41-2.25,1.3,0,2.36,1.01,2.36,2.24-.01,1.22-1.09,2.23-2.38,2.24"/>
  </g>
</svg>
