<?xml version="1.0" encoding="UTF-8"?>
<svg id="Layer_1" data-name="Layer 1" xmlns="http://www.w3.org/2000/svg" xmlns:xlink="http://www.w3.org/1999/xlink" viewBox="0 0 181.27 180.96">
  <defs>
    <style>
      .cls-1 {
        clip-path: url(#clippath-6);
      }

      .cls-2 {
        clip-path: url(#clippath-7);
      }

      .cls-3 {
        clip-path: url(#clippath-4);
      }

      .cls-4 {
        fill: #231f20;
      }

      .cls-5 {
        clip-path: url(#clippath-9);
      }

      .cls-6 {
        clip-path: url(#clippath-10);
      }

      .cls-7 {
        clip-path: url(#clippath-11);
      }

      .cls-8 {
        fill: none;
      }

      .cls-9 {
        clip-path: url(#clippath-1);
      }

      .cls-10 {
        clip-path: url(#clippath-5);
      }

      .cls-11 {
        clip-path: url(#clippath-8);
      }

      .cls-12 {
        clip-path: url(#clippath-3);
      }

      .cls-13 {
        clip-path: url(#clippath-12);
      }

      .cls-14 {
        clip-path: url(#clippath-2);
      }

      .cls-15 {
        clip-path: url(#clippath);
      }
    </style>
    <clipPath id="clippath">
      <rect class="cls-8" width="181.27" height="180.96"/>
    </clipPath>
    <clipPath id="clippath-1">
      <rect class="cls-8" width="181.27" height="180.96"/>
    </clipPath>
    <clipPath id="clippath-2">
      <rect class="cls-8" width="181.27" height="180.96"/>
    </clipPath>
    <clipPath id="clippath-3">
      <rect class="cls-8" width="181.27" height="180.96"/>
    </clipPath>
    <clipPath id="clippath-4">
      <rect class="cls-8" width="181.27" height="180.96"/>
    </clipPath>
    <clipPath id="clippath-5">
      <rect class="cls-8" width="181.27" height="180.96"/>
    </clipPath>
    <clipPath id="clippath-6">
      <rect class="cls-8" width="181.27" height="180.96"/>
    </clipPath>
    <clipPath id="clippath-7">
      <rect class="cls-8" width="181.27" height="180.96"/>
    </clipPath>
    <clipPath id="clippath-8">
      <rect class="cls-8" width="181.27" height="180.96"/>
    </clipPath>
    <clipPath id="clippath-9">
      <rect class="cls-8" width="181.27" height="180.96"/>
    </clipPath>
    <clipPath id="clippath-10">
      <rect class="cls-8" width="181.27" height="180.96"/>
    </clipPath>
    <clipPath id="clippath-11">
      <rect class="cls-8" width="181.27" height="180.96"/>
    </clipPath>
    <clipPath id="clippath-12">
      <rect class="cls-8" width="181.27" height="180.96"/>
    </clipPath>
  </defs>
  <g class="cls-15">
    <path class="cls-4" d="M99.98,1.28l-.49,3.86,2.27.29c.73.09,1.36,0,1.89-.28.53-.28.83-.75.91-1.4.16-1.24-.66-1.97-2.44-2.2l-2.14-.27ZM96.92,10.28L98.21,0l3.93.5c1.24.16,2.19.4,2.85.74,1.2.61,1.71,1.55,1.55,2.81-.12.94-.62,1.62-1.5,2.04-.88.42-1.99.55-3.33.38l-2.35-.3-.55,4.35-1.9-.24Z"/>
  </g>
  <polygon class="cls-4" points="107 11.71 109.57 1.67 117.36 3.66 117.08 4.76 111.15 3.24 110.34 6.39 115.93 7.82 115.65 8.92 110.06 7.49 109.14 11.09 115.32 12.67 115.04 13.77 107 11.71"/>
  <polygon class="cls-4" points="115.73 13.99 116.12 12.99 125.6 7.94 119.46 5.53 119.87 4.48 127.88 7.62 127.45 8.71 118 13.66 124.59 16.24 124.18 17.3 115.73 13.99"/>
  <polygon class="cls-4" points="125.57 17.81 130.79 8.86 133.57 10.49 132.12 19.15 132.16 19.17 138.99 13.64 141.77 15.27 136.55 24.22 134.9 23.25 139.46 15.43 131.9 21.5 130.23 20.53 131.79 10.96 127.23 18.78 125.57 17.81"/>
  <g class="cls-9">
    <path class="cls-4" d="M140.08,23.12l4.63-5.63,1.48,1.22-4.63,5.63c-.49.6-.69,1.17-.6,1.7.09.54.5,1.1,1.21,1.7.76.63,1.42.92,1.98.88.51-.02,1-.33,1.49-.92l4.63-5.63,1.48,1.22-4.63,5.63c-.65.79-1.44,1.16-2.39,1.12-1-.04-2.07-.54-3.23-1.49-2.34-1.93-2.82-3.73-1.43-5.42"/>
  </g>
  <polygon class="cls-4" points="146.64 32.66 154.28 25.66 155.97 27.5 153.08 37.15 159.45 31.31 160.75 32.72 153.11 39.72 151.32 37.77 154.12 28.4 147.93 34.07 146.64 32.66"/>
  <g class="cls-14">
    <path class="cls-4" d="M163.36,37.94l-6.85,4.61,1.12,1.65c.83,1.22,1.79,1.81,2.86,1.78.74-.03,1.61-.38,2.61-1.06,1.08-.73,1.76-1.4,2.05-2.01.42-.94.19-2.06-.68-3.33l-1.12-1.65ZM154.58,41.56l8.58-5.78,2.33,3.42c1.24,1.81,1.66,3.34,1.28,4.57-.27.92-1.11,1.85-2.51,2.79-2.86,1.93-5.27,1.45-7.23-1.42l-2.45-3.58Z"/>
  </g>
  <rect class="cls-4" x="160.69" y="48.82" width="10.36" height="1.91" transform="translate(-3.7 84.94) rotate(-28.42)"/>
  <path class="cls-4" d="M172.77,55.55l-5.45-.02,1.64,3.85,3.83-3.78-.02-.04ZM162.35,53.79l11.29.06,1.01,2.36-7.89,7.91-.79-1.84,2.18-2.14-1.95-4.57-3.07.05-.79-1.84Z"/>
  <polygon class="cls-4" points="166.91 64.93 176.87 62.09 177.4 63.93 168.52 66.46 170.25 72.53 169.16 72.84 166.91 64.93"/>
  <g class="cls-12">
    <path class="cls-4" d="M180.05,96.96l-3.87-.37-.22,2.28c-.07.74.04,1.36.34,1.88.3.52.77.81,1.43.87,1.24.12,1.95-.72,2.12-2.51l.2-2.15ZM170.95,94.16l10.32.99-.38,3.95c-.12,1.24-.34,2.2-.65,2.87-.57,1.21-1.5,1.76-2.77,1.64-.95-.09-1.64-.57-2.09-1.44-.45-.87-.61-1.97-.48-3.32l.23-2.36-4.36-.42.18-1.91Z"/>
    <path class="cls-4" d="M178.52,108.21l-3.56-.82-.43,1.84c-.21.88-.28,1.56-.22,2.01.12.83.6,1.34,1.44,1.53.5.11.95-.04,1.35-.45.4-.41.7-1.05.9-1.9l.52-2.21ZM169.87,104.27l10.1,2.32-1.13,4.87c-.28,1.19-.72,2.08-1.33,2.67-.61.59-1.31.79-2.1.61-1.44-.33-2.11-1.3-2-2.9h-.03c-.19.61-.49,1.08-.9,1.39-.4.31-.83.42-1.28.35l-1.75-.27c-.87-.14-1.46,0-1.77.44l.52-2.23c.24-.22.77-.28,1.58-.17l1.6.24c.63.08,1.11-.09,1.44-.51.21-.28.4-.74.55-1.39l.58-2.51-4.5-1.03.43-1.86Z"/>
  </g>
  <polygon class="cls-4" points="167.22 114.93 176.92 118.56 174.11 126.08 173.05 125.69 175.19 119.95 172.15 118.82 170.13 124.22 169.07 123.83 171.09 118.42 167.61 117.12 165.37 123.1 164.31 122.7 167.22 114.93"/>
  <g class="cls-3">
    <path class="cls-4" d="M170.94,130.31l-7.29-3.91-.95,1.76c-.7,1.3-.79,2.43-.26,3.37.37.64,1.09,1.25,2.15,1.82,1.15.62,2.06.91,2.74.88,1.04-.07,1.92-.79,2.66-2.16l.95-1.76ZM163.63,124.22l9.13,4.9-1.96,3.66c-1.04,1.94-2.21,3.03-3.48,3.27-.95.18-2.16-.12-3.65-.92-3.05-1.63-3.74-3.99-2.09-7.07l2.06-3.84Z"/>
  </g>
  <rect class="cls-4" x="160.65" y="132.87" width="1.92" height="10.36" transform="translate(-43.17 194.97) rotate(-56.04)"/>
  <g class="cls-10">
    <path class="cls-4" d="M153.52,145.88l-1.27,1.53c-1.8-1.74-1.77-3.73.09-5.98,1.26-1.52,2.58-2.22,3.96-2.11.99.08,2.12.64,3.38,1.66,1.23,1,1.99,2,2.27,2.99.38,1.33-.05,2.73-1.29,4.23-1.89,2.28-3.69,2.77-5.4,1.49l1.27-1.53c1.16.87,2.27.66,3.33-.61.77-.93.97-1.84.6-2.72-.27-.65-.96-1.42-2.05-2.31-1.09-.89-1.98-1.4-2.68-1.54-.94-.19-1.8.18-2.58,1.11-.66.8-.9,1.55-.73,2.25.13.48.5.99,1.1,1.53"/>
  </g>
  <path class="cls-4" d="M151.39,155.68l-1.84-5.13-3.06,2.85,4.86,2.31.03-.03ZM149.49,145.29l3.78,10.64-1.88,1.75-10.12-4.73,1.46-1.37,2.75,1.33,3.63-3.38-1.09-2.87,1.47-1.37Z"/>
  <polygon class="cls-4" points="140.65 153.38 146.6 161.86 144.56 163.29 135.37 159.18 140.33 166.26 138.77 167.36 132.81 158.88 134.98 157.35 143.9 161.34 139.09 154.47 140.65 153.38"/>
  <g class="cls-1">
    <path class="cls-4" d="M133.21,169.28l-3.71-7.39-1.79.9c-1.32.66-2.04,1.53-2.15,2.61-.07.74.17,1.65.71,2.73.59,1.17,1.16,1.93,1.74,2.3.89.54,2.02.46,3.41-.24l1.79-.9ZM130.74,160.1l4.65,9.26-3.72,1.86c-1.97.99-3.55,1.21-4.73.67-.88-.39-1.7-1.34-2.46-2.86-1.55-3.09-.76-5.42,2.37-6.98l3.89-1.95Z"/>
    <path class="cls-4" d="M118.77,175.68c1.16-.38,1.82-1.05,1.98-2,.12-.7-.04-1.72-.48-3.06-.44-1.34-.92-2.26-1.43-2.75-.69-.67-1.62-.81-2.78-.43-1.16.38-1.82,1.05-1.98,2-.12.7.04,1.72.48,3.06.44,1.34.92,2.26,1.43,2.75.69.67,1.62.81,2.78.43M119.1,176.67c-1.85.61-3.33.49-4.44-.34-.83-.62-1.5-1.69-1.99-3.21-.5-1.52-.6-2.77-.3-3.77.4-1.33,1.53-2.31,3.37-2.91,1.85-.61,3.33-.49,4.44.34.83.62,1.5,1.69,1.99,3.21.5,1.52.6,2.77.3,3.76-.4,1.33-1.53,2.31-3.37,2.91"/>
  </g>
  <path class="cls-4" d="M99.15,174.13l4.15-.52-1.52,5.23h-.04s-2.59-4.72-2.59-4.72ZM104.35,169.56l-.79,2.97-4.93.62-1.45-2.68-1.99.25,5.43,9.76,2.55-.32,3.16-10.84-1.99.25Z"/>
  <g class="cls-2">
    <path class="cls-4" d="M81.57,173.76l-2-.14c.39-2.48,2.05-3.62,4.98-3.41,1.98.14,3.33.81,4.03,2,.51.86.7,2.1.59,3.72-.11,1.59-.49,2.79-1.15,3.6-.88,1.08-2.29,1.56-4.23,1.42-2.97-.21-4.42-1.39-4.35-3.54l2,.14c-.04,1.45.77,2.24,2.43,2.35,1.22.09,2.08-.28,2.59-1.1.38-.6.62-1.61.72-3.02.1-1.41,0-2.44-.28-3.09-.39-.88-1.19-1.36-2.41-1.45-1.04-.07-1.8.17-2.28.73-.32.38-.53.98-.63,1.79"/>
    <path class="cls-4" d="M74.6,178.54l.75-3.58-1.85-.39c-.89-.19-1.57-.25-2.03-.18-.83.13-1.33.63-1.51,1.48-.11.5.05.95.47,1.34.42.39,1.07.68,1.93.86l2.24.47ZM78.39,169.82l-2.13,10.14-4.92-1.03c-1.21-.25-2.11-.68-2.71-1.28-.6-.6-.82-1.29-.65-2.09.3-1.45,1.27-2.14,2.88-2.06v-.03c-.62-.18-1.1-.47-1.41-.87-.32-.4-.44-.82-.38-1.27l.24-1.76c.12-.87-.03-1.46-.48-1.76l2.26.48c.23.24.3.76.2,1.57l-.2,1.6c-.07.63.11,1.1.54,1.43.28.21.75.38,1.4.52l2.53.53.95-4.51,1.88.39Z"/>
  </g>
  <rect class="cls-4" x="59.99" y="170.98" width="10.36" height="1.92" transform="translate(-118.38 182.81) rotate(-72.63)"/>
  <g class="cls-11">
    <path class="cls-4" d="M52.75,169.8l1.77.73c-.47,1.13.03,2,1.52,2.62,1.58.66,2.59.47,3.02-.56.3-.73-.05-1.5-1.07-2.33-.97-.73-1.94-1.46-2.93-2.19-.98-.93-1.26-1.88-.85-2.85.42-1,1.22-1.55,2.41-1.62.95-.06,2.03.16,3.24.66,1.61.67,2.63,1.42,3.09,2.25.4.74.37,1.64-.08,2.72l-1.77-.74c.3-.7.38-1.25.25-1.66-.19-.63-.86-1.19-2.01-1.67-.71-.3-1.37-.39-1.97-.27-.61.11-1.01.42-1.22.91-.31.73.05,1.51,1.06,2.35.97.73,1.94,1.46,2.92,2.2.97.94,1.25,1.9.84,2.88-.27.65-.75,1.09-1.43,1.33-.99.36-2.28.21-3.87-.45-2.64-1.1-3.6-2.54-2.9-4.32"/>
  </g>
  <polygon class="cls-4" points="45.19 167.45 49.8 159.45 51.46 160.41 46.85 168.4 50.22 170.35 49.66 171.33 41.23 166.47 41.8 165.49 45.19 167.45"/>
  <g class="cls-5">
    <path class="cls-4" d="M35.86,161.46c.97.75,1.88.92,2.76.52.65-.29,1.4-1,2.27-2.12.86-1.12,1.36-2.03,1.48-2.73.16-.95-.24-1.8-1.2-2.54-.97-.75-1.89-.92-2.76-.52-.65.29-1.4,1-2.27,2.12-.86,1.12-1.36,2.03-1.48,2.73-.16.95.24,1.8,1.2,2.54M35.22,162.29c-1.54-1.19-2.27-2.48-2.21-3.87.05-1.04.56-2.19,1.54-3.45.97-1.26,1.96-2.05,2.95-2.36,1.33-.41,2.76-.03,4.3,1.16,1.54,1.19,2.27,2.48,2.21,3.87-.05,1.04-.56,2.19-1.54,3.45-.98,1.26-1.96,2.05-2.95,2.36-1.33.41-2.76.03-4.3-1.16"/>
  </g>
  <polygon class="cls-4" points="32.66 145.93 24.85 152.74 19.57 146.68 20.42 145.94 24.44 150.55 26.9 148.42 23.1 144.07 23.96 143.32 27.75 147.67 30.55 145.23 26.36 140.42 27.21 139.68 32.66 145.93"/>
  <polygon class="cls-4" points="26.29 138.5 17.64 144.2 16.27 142.12 20.64 133.04 13.42 137.81 12.37 136.21 21.02 130.5 22.48 132.71 18.23 141.52 25.24 136.9 26.29 138.5"/>
  <g class="cls-6">
    <path class="cls-4" d="M7.42,118.98l.71,1.78c-1.14.46-1.41,1.43-.82,2.93.64,1.59,1.48,2.18,2.52,1.76.74-.29,1.04-1.09.91-2.4-.16-1.2-.32-2.41-.48-3.63-.02-1.35.47-2.23,1.45-2.62,1.01-.4,1.97-.22,2.85.57.71.64,1.31,1.56,1.8,2.77.65,1.62.83,2.88.55,3.79-.25.8-.92,1.42-2.01,1.86l-.71-1.78c.71-.28,1.17-.61,1.37-.99.32-.58.25-1.45-.22-2.61-.28-.71-.68-1.25-1.19-1.6-.51-.35-1.01-.43-1.51-.23-.74.29-1.05,1.1-.94,2.42.16,1.2.31,2.41.47,3.63.01,1.36-.48,2.23-1.48,2.63-.66.26-1.31.23-1.96-.09-.95-.45-1.75-1.48-2.39-3.08-1.06-2.65-.71-4.36,1.07-5.12"/>
  </g>
  <path class="cls-4" d="M4.25,112.21l5.38.86-1.02-4.05-4.37,3.15v.04ZM14.27,115.56l-11.14-1.81-.63-2.49,9.02-6.59.49,1.94-2.49,1.78,1.21,4.81,3.04.42.49,1.94Z"/>
  <polygon class="cls-4" points=".11 95.52 .32 97.43 8.91 96.49 .87 102.56 1.14 105.04 11.45 103.92 11.24 102.02 2.9 102.92 10.69 97.03 10.41 94.4 .11 95.52"/>
  <polygon class="cls-4" points="0 92.99 1.13 93.02 1.23 89.12 10.45 89.35 10.5 87.43 1.27 87.21 1.37 83.29 .24 83.26 0 92.99"/>
  <g class="cls-7">
    <path class="cls-4" d="M2.05,76.17c-.19,1.2.1,2.09.87,2.67.57.43,1.55.75,2.95.98,1.4.22,2.43.22,3.1-.01.91-.31,1.46-1.07,1.65-2.27.19-1.2-.1-2.09-.87-2.67-.57-.43-1.55-.75-2.94-.97-1.4-.22-2.43-.22-3.1.01-.91.31-1.46,1.07-1.65,2.27M1.02,76.01c.3-1.92,1.09-3.18,2.34-3.79.93-.45,2.19-.55,3.76-.3,1.58.25,2.74.74,3.49,1.46,1,.97,1.35,2.41,1.04,4.33-.31,1.92-1.09,3.19-2.34,3.79-.93.45-2.19.55-3.76.3-1.58-.25-2.74-.74-3.49-1.46-1-.97-1.35-2.41-1.04-4.33"/>
    <path class="cls-4" d="M6.16,60.62l7.71,2.98.72-1.87c.53-1.38.48-2.51-.16-3.38-.45-.59-1.23-1.11-2.36-1.54-1.22-.47-2.16-.65-2.83-.53-1.02.2-1.81,1.02-2.37,2.47l-.72,1.87ZM14.16,65.76l-9.67-3.73,1.5-3.88c.79-2.06,1.81-3.28,3.05-3.67.91-.3,2.16-.15,3.74.47,3.22,1.24,4.2,3.5,2.94,6.76l-1.57,4.06Z"/>
    <path class="cls-4" d="M12.56,46.19c-.6,1.06-.64,1.99-.12,2.8.38.6,1.19,1.24,2.42,1.94,1.23.69,2.2,1.05,2.91,1.07.96.03,1.74-.49,2.35-1.54.6-1.06.64-1.99.12-2.8-.38-.6-1.19-1.25-2.42-1.94-1.23-.69-2.2-1.05-2.91-1.07-.96-.03-1.74.49-2.35,1.54M11.65,45.68c.96-1.69,2.13-2.59,3.52-2.73,1.03-.1,2.25.25,3.63,1.03,1.39.79,2.31,1.65,2.75,2.58.6,1.25.42,2.72-.54,4.41-.96,1.69-2.13,2.59-3.52,2.73-1.03.1-2.25-.25-3.63-1.03s-2.31-1.64-2.75-2.58c-.6-1.25-.42-2.72.54-4.41"/>
  </g>
  <polygon class="cls-4" points="24.34 44.82 16.29 38.29 18.32 35.79 26.66 38.54 26.69 38.51 22.27 30.92 24.3 28.42 32.34 34.94 31.14 36.43 24.1 30.73 28.95 39.13 27.73 40.63 18.51 37.63 25.54 43.33 24.34 44.82"/>
  <rect class="cls-4" x="30.25" y="23.9" width="1.92" height="10.36" transform="translate(-11.44 29.95) rotate(-44.15)"/>
  <polygon class="cls-4" points="37.1 30.48 30.66 22.36 32.61 20.81 42.04 24.37 36.66 17.6 38.16 16.41 44.6 24.52 42.52 26.17 33.38 22.72 38.6 29.29 37.1 30.48"/>
  <g class="cls-13">
    <path class="cls-4" d="M50.74,12.1l-1.73,1c-.77-1.11-1.86-1.26-3.26-.45-1.05.61-1.56,1.39-1.52,2.34.03.71.4,1.66,1.11,2.87.71,1.21,1.37,2,1.97,2.37.82.51,1.75.45,2.81-.16,1.64-.95,1.88-2.42.7-4.42l-2.65,1.53-.53-.89,4.16-2.4,2.71,4.61-1.24.72-.71-1.21c.04.51-.11,1.03-.47,1.57-.38.59-.92,1.08-1.63,1.49-1.6.93-3.01,1.1-4.22.54-.92-.42-1.8-1.34-2.63-2.76-.8-1.37-1.16-2.56-1.08-3.59.12-1.38,1.01-2.55,2.69-3.52,1.64-.95,3.01-1.23,4.1-.83.58.21,1.05.6,1.42,1.18"/>
    <path class="cls-4" d="M57.18,7.09c-1.13.45-1.74,1.16-1.84,2.12-.07.71.15,1.72.68,3.03.53,1.31,1.06,2.19,1.61,2.65.74.62,1.67.71,2.8.25,1.13-.45,1.74-1.16,1.84-2.12.07-.71-.15-1.72-.68-3.03-.53-1.31-1.06-2.19-1.61-2.65-.73-.62-1.67-.71-2.8-.25M56.79,6.12c1.8-.73,3.29-.71,4.46.05.87.57,1.6,1.59,2.2,3.07.6,1.48.78,2.73.54,3.74-.31,1.36-1.37,2.4-3.18,3.13-1.8.73-3.29.71-4.46-.05-.87-.57-1.6-1.59-2.2-3.07-.6-1.48-.78-2.73-.55-3.74.31-1.36,1.37-2.4,3.18-3.13"/>
    <path class="cls-4" d="M102.09,106.55c2.32-.14,4.66-.55,6.93-1.07,1.3-.32,2.58-.98,3.67-1.76,2.6-1.8,3.25-4.55,1.96-7.37-1.52-3.27-3.8-6.04-6.27-8.65-.26-.24-.94-.24-1.36-.12-4.86,1.44-9.67,3.1-14.58,4.4-7.09,1.87-14.35,2.61-21.71,2.29-5.6-.24-10.33-1.78-14.25-4.45.05,6.24,1.86,12.07,4.93,17.08,9.57-.04,19.15-.08,28.73-.12,3.99-.02,7.97,0,11.95-.22"/>
    <path class="cls-4" d="M64.1,83.6c5.92,2.8,12.19,3.26,18.61,2.52,5.61-.61,10.98-2.2,16.31-3.89.73-.25,1.46-.49,2.18-.72.03-.09.05-.19.07-.3-2.17-1.36-4.29-2.85-6.53-4.09-4.27-2.37-8.81-4.06-13.76-4.43-8.09-.61-15.33,2.08-22.5,5.52-.1.31-.23.6-.34.93,1.71,1.95,3.68,3.4,5.96,4.47"/>
    <path class="cls-4" d="M126.87,89.54c0-3.14-.48-6.15-1.28-9.03-2.23.97-4.47,1.91-6.64,2.86,1.31,2.16,2.8,4.25,3.97,6.51,1.96,3.78,2.68,7.77,1.55,11.95,1.53-3.83,2.4-7.96,2.4-12.28"/>
    <path class="cls-4" d="M91.65,55.48c-10.89,0-20.6,4.77-27.06,12.27,5.58-1.76,11.37-2.71,17.48-2.48,7.82.3,15.07,2.65,21.8,6.39,2.67,1.5,5.17,3.3,7.69,5.03.73.51,1.27.68,2.17.32,2.96-1.23,5.93-2.45,8.91-3.66-5.96-10.65-17.6-17.87-30.99-17.87"/>
    <path class="cls-4" d="M117.3,110.88c-5.47,3.54-11.51,5.49-18.17,5.51-9.62.04-19.25.08-28.87.12,5.93,4.43,13.33,7.08,21.39,7.08,13.08,0,24.48-6.93,30.54-17.17-1.3,1.74-2.97,3.21-4.9,4.45"/>
  </g>
</svg>